<svg width="36" height="44" viewBox="0 0 36 44" fill="none" xmlns="http://www.w3.org/2000/svg">
<g id="Group 1">
<rect id="Rectangle 87" x="12.0646" width="1.41935" height="2.12903" fill="white"/>
<rect id="Rectangle 90" x="9.93542" y="2.12903" width="2.12903" height="2.12903" fill="white"/>
<rect id="Rectangle 91" x="9.93542" y="4.25806" width="2.12903" height="2.12903" fill="white"/>
<rect id="Rectangle 92" x="9.93542" y="6.38708" width="2.12903" height="2.12903" fill="white"/>
<rect id="Rectangle 93" x="9.93542" y="8.51614" width="2.12903" height="1.41935" fill="white"/>
<rect id="Rectangle 94" x="9.93542" y="9.93549" width="2.12903" height="2.12903" fill="white"/>
<rect id="Rectangle 95" x="9.93542" y="12.0645" width="2.12903" height="2.12903" fill="white"/>
<rect id="Rectangle 96" x="9.93542" y="14.1935" width="2.12903" height="2.12903" fill="white"/>
<rect id="Rectangle 97" x="9.93542" y="16.3226" width="2.12903" height="1.41935" fill="white"/>
<rect id="Rectangle 187" x="9.93542" y="17.7419" width="2.12903" height="2.12903" fill="white"/>
<rect id="Rectangle 191" x="9.93542" y="19.871" width="2.12903" height="2.12903" fill="white"/>
<rect id="Rectangle 192" x="7.8064" y="17.7419" width="2.12903" height="2.12903" fill="white"/>
<rect id="Rectangle 104" x="15.6129" y="17.7419" width="2.12903" height="2.12903" fill="white"/>
<rect id="Rectangle 186" x="15.6129" y="19.871" width="2.12903" height="2.12903" fill="white"/>
<rect id="Rectangle 188" x="15.6129" y="22" width="2.12903" height="2.12903" fill="white"/>
<rect id="Rectangle 105" x="15.6129" y="16.3226" width="2.12903" height="1.41935" fill="white"/>
<rect id="Rectangle 106" x="15.6129" y="14.1935" width="2.12903" height="2.12903" fill="white"/>
<rect id="Rectangle 107" x="15.6129" y="12.0645" width="2.12903" height="2.12903" fill="white"/>
<rect id="Rectangle 110" x="15.6129" y="9.93549" width="2.12903" height="2.12903" fill="white"/>
<rect id="Rectangle 108" x="17.7419" y="12.0645" width="2.12903" height="2.12903" fill="white"/>
<rect id="Rectangle 109" x="19.871" y="12.0645" width="2.12903" height="2.12903" fill="white"/>
<rect id="Rectangle 116" x="22" y="14.1935" width="1.41935" height="2.12903" fill="white"/>
<rect id="Rectangle 117" x="22" y="16.3226" width="1.41935" height="1.41935" fill="white"/>
<rect id="Rectangle 118" x="22" y="17.7419" width="1.41935" height="2.12903" fill="white"/>
<rect id="Rectangle 119" x="22" y="19.871" width="1.41935" height="2.12903" fill="white"/>
<rect id="Rectangle 150" x="23.4193" y="24.129" width="2.12903" height="2.12903" fill="white"/>
<rect id="Rectangle 189" x="17.7419" y="24.129" width="2.12903" height="2.12903" fill="white"/>
<rect id="Rectangle 151" x="25.5483" y="24.129" width="2.12903" height="2.12903" fill="white"/>
<rect id="Rectangle 190" x="19.871" y="24.129" width="2.12903" height="2.12903" fill="white"/>
<rect id="Rectangle 148" x="22" y="22" width="1.41935" height="2.12903" fill="white"/>
<rect id="Rectangle 114" x="23.4193" y="12.0645" width="2.12903" height="2.12903" fill="white"/>
<rect id="Rectangle 115" x="25.5483" y="12.0645" width="2.12903" height="2.12903" fill="white"/>
<rect id="Rectangle 121" x="27.6774" y="12.0645" width="2.12903" height="2.12903" fill="white"/>
<rect id="Rectangle 134" x="27.6774" y="14.1935" width="2.12903" height="2.12903" fill="white"/>
<rect id="Rectangle 135" x="27.6774" y="16.3226" width="2.12903" height="1.41935" fill="white"/>
<rect id="Rectangle 136" x="27.6774" y="17.7419" width="2.12903" height="2.12903" fill="white"/>
<rect id="Rectangle 137" x="27.6774" y="19.871" width="2.12903" height="2.12903" fill="white"/>
<rect id="Rectangle 138" x="27.6774" y="22" width="2.12903" height="2.12903" fill="white"/>
<rect id="Rectangle 122" x="27.6774" y="9.93549" width="2.12903" height="2.12903" fill="white"/>
<rect id="Rectangle 123" x="27.6774" y="8.51614" width="2.12903" height="1.41935" fill="white"/>
<rect id="Rectangle 124" x="27.6774" y="6.38708" width="2.12903" height="2.12903" fill="white"/>
<rect id="Rectangle 125" x="27.6774" y="4.25806" width="2.12903" height="2.12903" fill="white"/>
<rect id="Rectangle 126" x="27.6774" y="2.12903" width="2.12903" height="2.12903" fill="white"/>
<rect id="Rectangle 128" x="29.8064" width="1.41935" height="2.12903" fill="white"/>
<rect id="Rectangle 129" x="31.2258" width="2.12903" height="2.12903" fill="white"/>
<rect id="Rectangle 127" x="33.3549" y="2.12903" width="2.12903" height="2.12903" fill="white"/>
<rect id="Rectangle 130" x="33.3549" y="4.25806" width="2.12903" height="2.12903" fill="white"/>
<rect id="Rectangle 131" x="33.3549" y="6.38708" width="2.12903" height="2.12903" fill="white"/>
<rect id="Rectangle 132" x="33.3549" y="8.51614" width="2.12903" height="1.41935" fill="white"/>
<rect id="Rectangle 133" x="33.3549" y="9.93549" width="2.12903" height="2.12903" fill="white"/>
<rect id="Rectangle 139" x="33.3549" y="12.0645" width="2.12903" height="2.12903" fill="white"/>
<rect id="Rectangle 140" x="33.3549" y="14.1935" width="2.12903" height="2.12903" fill="white"/>
<rect id="Rectangle 141" x="33.3549" y="16.3226" width="2.12903" height="1.41935" fill="white"/>
<rect id="Rectangle 142" x="33.3549" y="17.7419" width="2.12903" height="2.12903" fill="white"/>
<rect id="Rectangle 143" x="33.3549" y="19.871" width="2.12903" height="2.12903" fill="white"/>
<rect id="Rectangle 144" x="33.3549" y="22" width="2.12903" height="2.12903" fill="white"/>
<rect id="Rectangle 145" x="33.3549" y="24.129" width="2.12903" height="2.12903" fill="white"/>
<rect id="Rectangle 152" x="33.3549" y="26.2581" width="2.12903" height="1.41935" fill="white"/>
<rect id="Rectangle 153" x="33.3549" y="27.6774" width="2.12903" height="2.12903" fill="white"/>
<rect id="Rectangle 154" x="33.3549" y="29.8065" width="2.12903" height="2.12903" fill="white"/>
<rect id="Rectangle 155" x="31.2258" y="31.9355" width="2.12903" height="2.12903" fill="white"/>
<rect id="Rectangle 156" x="31.2258" y="34.0645" width="2.12903" height="1.41935" fill="white"/>
<rect id="Rectangle 157" x="31.2258" y="35.4839" width="2.12903" height="2.12903" fill="white"/>
<rect id="Rectangle 158" x="29.8064" y="37.6129" width="1.41935" height="2.12903" fill="white"/>
<rect id="Rectangle 159" x="29.8064" y="39.7419" width="1.41935" height="2.12903" fill="white"/>
<rect id="Rectangle 160" x="29.8064" y="41.871" width="1.41935" height="2.12903" fill="white"/>
<rect id="Rectangle 161" x="27.6774" y="41.871" width="2.12903" height="2.12903" fill="white"/>
<rect id="Rectangle 162" x="25.5483" y="41.871" width="2.12903" height="2.12903" fill="white"/>
<rect id="Rectangle 163" x="23.4193" y="41.871" width="2.12903" height="2.12903" fill="white"/>
<rect id="Rectangle 164" x="22" y="41.871" width="1.41935" height="2.12903" fill="white"/>
<rect id="Rectangle 165" x="19.871" y="41.871" width="2.12903" height="2.12903" fill="white"/>
<rect id="Rectangle 166" x="17.7419" y="41.871" width="2.12903" height="2.12903" fill="white"/>
<rect id="Rectangle 167" x="15.6129" y="41.871" width="2.12903" height="2.12903" fill="white"/>
<rect id="Rectangle 168" x="13.4839" y="41.871" width="2.12903" height="2.12903" fill="white"/>
<rect id="Rectangle 169" x="12.0646" y="41.871" width="1.41935" height="2.12903" fill="white"/>
<rect id="Rectangle 170" x="12.0646" y="39.7419" width="1.41935" height="2.12903" fill="white"/>
<rect id="Rectangle 171" x="12.0646" y="37.6129" width="1.41935" height="2.12903" fill="white"/>
<rect id="Rectangle 172" x="9.93542" y="35.4839" width="2.12903" height="2.12903" fill="white"/>
<rect id="Rectangle 173" x="9.93542" y="34.0645" width="2.12903" height="1.41935" fill="white"/>
<rect id="Rectangle 174" x="7.8064" y="29.8065" width="2.12903" height="4.25806" fill="white"/>
<rect id="Rectangle 176" x="5.67737" y="27.6774" width="2.12903" height="2.12903" fill="white"/>
<rect id="Rectangle 177" x="5.67737" y="26.2581" width="2.12903" height="1.41935" fill="white"/>
<rect id="Rectangle 178" x="4.25806" y="24.129" width="1.41935" height="2.12903" fill="white"/>
<rect id="Rectangle 179" x="4.25806" y="22" width="1.41935" height="2.12903" fill="white"/>
<rect id="Rectangle 185" x="5.67737" y="16.3226" width="2.12903" height="1.41935" fill="white"/>
<rect id="Rectangle 100" y="14.1935" width="2.12903" height="2.12903" fill="white"/>
<rect id="Rectangle 180" x="2.12903" y="14.1935" width="2.12903" height="2.12903" fill="white"/>
<rect id="Rectangle 181" x="4.25806" y="14.1935" width="1.41935" height="2.12903" fill="white"/>
<rect id="Rectangle 101" x="4.25806" y="19.871" width="1.41935" height="2.12903" fill="white"/>
<rect id="Rectangle 184" x="2.12903" y="19.871" width="2.12903" height="2.12903" fill="white"/>
<rect id="Rectangle 182" y="16.3226" width="2.12903" height="1.41935" fill="white"/>
<rect id="Rectangle 183" y="17.7419" width="2.12903" height="2.12903" fill="white"/>
<rect id="Rectangle 88" x="13.4839" width="2.12903" height="2.12903" fill="white"/>
<rect id="Rectangle 89" x="15.6129" y="2.12903" width="2.12903" height="2.12903" fill="white"/>
<rect id="Rectangle 111" x="15.6129" y="4.25806" width="2.12903" height="2.12903" fill="white"/>
<rect id="Rectangle 112" x="15.6129" y="6.38708" width="2.12903" height="2.12903" fill="white"/>
<rect id="Rectangle 113" x="15.6129" y="8.51614" width="2.12903" height="1.41935" fill="white"/>
</g>
</svg>
